<svg id="Layer_1" data-name="Layer 1" xmlns="http://www.w3.org/2000/svg" viewBox="0 0 416.91 405.98"><defs><style>.cls-1{fill:#58595b;}.cls-1,.cls-4,.cls-6,.cls-8{fill-rule:evenodd;}.cls-2,.cls-5,.cls-7{fill:none;stroke:#fff;}.cls-2,.cls-5{stroke-miterlimit:2.61;}.cls-3,.cls-4{fill:#fff;}.cls-5{stroke-width:0.22px;}.cls-6{fill:#2e3192;}.cls-7{stroke-linecap:round;stroke-linejoin:round;stroke-width:11.93px;}.cls-8{fill:#ed1c24;}</style></defs><path class="cls-1" d="M155.59,56.77c10.44-4,18.74-6.72,30.82-8.49l5.48-33.55c14.4-1.17,29.16-1.89,44.34-.31l5.65,33.13a134.77,134.77,0,0,1,30.47,8.1l21.56-25.81c13,6.32,26.18,13.21,38.55,22.3L321.51,83.7a171.32,171.32,0,0,1,22.4,22.18l30.93-11C383,107,391,119.59,397.27,133.76L372.87,155a171.93,171.93,0,0,1,9.29,34.79L413,192.3c1.15,14.65,1.86,29.67.3,45.12l-31,5.88a172,172,0,0,1-8.08,31.9l23.93,20.91c-6.21,13.28-13,26.64-21.91,39.22L346.6,324.7a171.67,171.67,0,0,1-22.78,23.51l10.43,30.25c-11.89,8.33-24.32,16.46-38.25,22.82L275.61,377a164.88,164.88,0,0,1-31.3,8.69l-5.84,31.55c-14.4,1.17-29.16,1.89-44.33.31l-5.82-31.76a164,164,0,0,1-30.95-8.44l-20.92,24.78c-13-6.32-26.18-13.2-38.55-22.3l10.83-31.19c-8.47-7.15-14.36-15.5-21.92-23.3L55.53,337.16c-8.2-12.11-16.19-24.75-22.43-38.92l25.11-21.87a172.14,172.14,0,0,1-8.57-33.64v3.15L17.38,239.7c-1.15-14.65-1.85-29.67-.3-45.12l32.56-6.17v2.66a185.85,185.85,0,0,1,8.26-33.19l-25.66-22c6.2-13.27,13-26.64,21.91-39.22l32.26,11.17A185.34,185.34,0,0,1,107.56,86L96.11,53.54c11.9-8.33,24.33-16.47,38.25-22.82Zm31.17-8.61-.71.24m56.25-.85h-.84m31,8.06-.33.09M86.08,108.2l.67-.71m21.07-21.56-.53.15" transform="translate(-7.55 -13.01)"/><path class="cls-2" d="M155.59,56.77c10.44-4,18.74-6.72,30.82-8.49l5.48-33.55c14.4-1.17,29.16-1.89,44.34-.31l5.65,33.13a134.77,134.77,0,0,1,30.47,8.1l21.56-25.81c13,6.32,26.18,13.21,38.55,22.3L321.51,83.7a171.32,171.32,0,0,1,22.4,22.18l30.93-11C383,107,391,119.59,397.27,133.76L372.87,155a171.93,171.93,0,0,1,9.29,34.79L413,192.3c1.15,14.65,1.86,29.67.3,45.12l-31,5.88a172,172,0,0,1-8.08,31.9l23.93,20.91c-6.21,13.28-13,26.64-21.91,39.22L346.6,324.7a171.67,171.67,0,0,1-22.78,23.51l10.43,30.25c-11.89,8.33-24.32,16.46-38.25,22.82L275.61,377a164.88,164.88,0,0,1-31.3,8.69l-5.84,31.55c-14.4,1.17-29.16,1.89-44.33.31l-5.82-31.76a164,164,0,0,1-30.95-8.44l-20.92,24.78c-13-6.32-26.18-13.2-38.55-22.3l10.83-31.19c-8.47-7.15-14.36-15.5-21.92-23.3L55.53,337.16c-8.2-12.11-16.19-24.75-22.43-38.92l25.11-21.87a172.14,172.14,0,0,1-8.57-33.64v3.15L17.38,239.7c-1.15-14.65-1.85-29.67-.3-45.12l32.56-6.17v2.66a185.85,185.85,0,0,1,8.26-33.19l-25.66-22c6.2-13.27,13-26.64,21.91-39.22l32.26,11.17A185.34,185.34,0,0,1,107.56,86L96.11,53.54c11.9-8.33,24.33-16.47,38.25-22.82Zm31.17-8.61-.71.24m56.25-.85h-.84m31,8.06-.33.09M86.08,108.2l.67-.71m21.07-21.56-.53.15" transform="translate(-7.55 -13.01)"/><path class="cls-3" d="M326.62,140l2.28,4.19a11.82,11.82,0,0,0-3.28,6.32,10.19,10.19,0,0,0,1.22,6.67,6.05,6.05,0,0,0,2.52,2.68,2.85,2.85,0,0,0,2.79,0c1.36-.77,1.58-3.12.64-7.06-.32-1.27-.55-2.28-.7-3-.5-2.39-.85-4.26-1-5.61a12.08,12.08,0,0,1-.11-3.08,10.29,10.29,0,0,1,1.44-4.18,8.79,8.79,0,0,1,3.1-2.84,9.62,9.62,0,0,1,8.68-.67q4.38,1.74,7.27,7.05a26.33,26.33,0,0,1,2.23,5.33,22.81,22.81,0,0,1,.87,5.42l1.86,0,2.26,4.15-9.87,5.57L346.13,156a8.82,8.82,0,0,0,3-5.24,9.85,9.85,0,0,0-1.41-6.11,6,6,0,0,0-2.6-2.7,2.85,2.85,0,0,0-2.81-.05c-1.27.71-1.36,2.86-.26,6.43.26.87.47,1.56.61,2,1.41,5,1.87,8.86,1.35,11.5a8.82,8.82,0,0,1-4.65,6.15,9.32,9.32,0,0,1-8.66.55q-4.37-1.87-7.43-7.49a23.93,23.93,0,0,1-2.12-5.27,25.43,25.43,0,0,1-.84-5.69l-2.17-.18L316,146Zm-5-37.46-6.19,24.59,9.9-10.81c.9-1,1.31-1.68,1.25-2.11a3.94,3.94,0,0,0-1.31-1.8l-1.34-1.28,3.14-3.42,10.45,9.92-3.14,3.42-.84-.8a3.63,3.63,0,0,0-1.9-1.19c-.44,0-1.09.46-1.95,1.4l-17.14,18.71-8.16-7.74L311,105.36l-10.85,11.83c-.86.94-1.27,1.63-1.24,2.08s.47,1.07,1.29,1.86l1.06,1-3.14,3.43-10.49-10,3.14-3.42,1.16,1.1a3.53,3.53,0,0,0,1.94,1.2c.45,0,1.11-.46,2-1.39L308,99.89c.84-.92,1.25-1.61,1.22-2.06a3.63,3.63,0,0,0-1.32-1.89l-1.17-1.11,3.14-3.42ZM259.61,82q3.78-7.24,10.37-9t14.39,2.5q7.78,4.21,10,10.72T292.89,100q-3.79,7.25-10.36,9t-14.41-2.53q-7.75-4.19-10-10.7T259.61,82Zm22.46-2a5,5,0,0,0-5.6.32c-1.79,1.25-3.69,3.81-5.7,7.64s-3.08,7-3.11,9.21a5.08,5.08,0,0,0,2.83,4.88,4.94,4.94,0,0,0,5.6-.3q2.67-1.87,5.7-7.66c2-3.89,3.06-6.94,3.1-9.18A5.09,5.09,0,0,0,282.07,80Zm-61.85.24,4.65.66a11.92,11.92,0,0,0,3,6.47,9.88,9.88,0,0,0,6,3,6,6,0,0,0,3.62-.45,2.93,2.93,0,0,0,1.65-2.28c.21-1.57-1.5-3.15-5.15-4.76-1.19-.52-2.12-.93-2.8-1.26-2.18-1-3.86-1.87-5-2.53a12.17,12.17,0,0,1-2.48-1.77,10.1,10.1,0,0,1-2.42-3.69,9,9,0,0,1-.36-4.23,10,10,0,0,1,4.7-7.45q4-2.5,9.91-1.67a25.34,25.34,0,0,1,5.52,1.4,21.42,21.42,0,0,1,4.78,2.56l1.1-1.53,4.62.66-1.57,11.38L244.52,74a8.89,8.89,0,0,0-2.28-5.61,9.51,9.51,0,0,0-5.65-2.54,6,6,0,0,0-3.69.49,3,3,0,0,0-1.73,2.25q-.3,2.2,4.9,4.08c.84.32,1.5.56,2,.75q7.2,2.81,9.84,5.82a8.94,8.94,0,0,1,2,7.47,9.66,9.66,0,0,1-4.78,7.38c-2.74,1.61-6.18,2.12-10.35,1.52a22.93,22.93,0,0,1-5.41-1.44,24.84,24.84,0,0,1-5-2.74L223,93l-4.42-.63ZM188.63,62.45l15.24,20.1L201.6,68c-.21-1.31-.5-2.08-.88-2.29a3.74,3.74,0,0,0-2.19-.07l-1.82.3L196,61.26,210.11,59l.72,4.63-1.14.18a3.63,3.63,0,0,0-2.09.79c-.28.34-.31,1.16-.12,2.42l3.94,25.27-11,1.78L184.27,72.64l2.49,16c.2,1.27.48,2,.85,2.28a3.39,3.39,0,0,0,2.23.1l1.43-.23L192,95.4l-14.17,2.28-.72-4.62,1.57-.26a3.53,3.53,0,0,0,2.12-.81,3.59,3.59,0,0,0,.13-2.43l-2.77-17.83c-.2-1.24-.48-2-.84-2.24a3.52,3.52,0,0,0-2.28-.11l-1.58.25L172.73,65Zm-27.24,44.19-2.16-4.14,1.29-.7a7.18,7.18,0,0,0,1.9-1.26.8.8,0,0,0,0-.89A3.45,3.45,0,0,0,162,99a5.85,5.85,0,0,0-.45-.54l-2.67-2.58-7.72,4.19.56,3.27a10.87,10.87,0,0,0,.21,1.17,4.11,4.11,0,0,0,.26.71c.14.26.41.36.84.32a4.86,4.86,0,0,0,1.59-.59l1.42-.77,2.16,4.13-12.83,7-2.16-4.14,1.06-.57a3,3,0,0,0,1.46-1.7,6.41,6.41,0,0,0,.08-3l-4-26.16,10.38-5.62,18.22,18.35a7.07,7.07,0,0,0,2.63,2,3.28,3.28,0,0,0,2-.53l1.51-.81,2.16,4.13Zm-6-14.17L148.14,85l2.18,10.17Zm-47.74,13,3.13,3.43-.39.37a2.84,2.84,0,0,0-1.09,1.67c0,.44.41,1.12,1.24,2l4,4.36,6.59-6.25-4-4.36c-.83-.92-1.47-1.38-1.9-1.4a2.86,2.86,0,0,0-1.73,1l-.38.36L110,103.21,123.16,90.7l3.14,3.43-1.21,1.14a3.68,3.68,0,0,0-1.3,1.84c0,.44.38,1.13,1.24,2.07l12.1,13.21c.87.94,1.51,1.41,2,1.4a3.5,3.5,0,0,0,1.91-1.17l1.2-1.15,3.14,3.43-13.18,12.51L129,124l.38-.36a2.79,2.79,0,0,0,1.07-1.68c0-.45-.39-1.13-1.23-2l-5-5.42-6.59,6.25,5,5.42c.84.92,1.48,1.38,1.92,1.41a2.77,2.77,0,0,0,1.71-1l.4-.38,3.14,3.43-13.18,12.51-3.14-3.43,1.19-1.13a4,4,0,0,0,1.31-1.79c.08-.44-.34-1.15-1.25-2.15l-12.11-13.21c-.87-1-1.52-1.42-1.94-1.41a3.67,3.67,0,0,0-1.9,1.21l-1.2,1.14-3.14-3.43ZM91.13,165.55l2.28-4.19a11.36,11.36,0,0,0,7-.52,9.9,9.9,0,0,0,4.92-4.59,6.14,6.14,0,0,0,.89-3.59,2.93,2.93,0,0,0-1.5-2.39q-2-1.16-6.22,3.18c-.89,1-1.61,1.69-2.15,2.21q-2.58,2.55-4.13,3.86a11.57,11.57,0,0,1-2.5,1.72,9.8,9.8,0,0,1-4.26,1,8.55,8.55,0,0,1-4-1.17,9.92,9.92,0,0,1-5.16-7.14q-.87-4.69,2-10a26.62,26.62,0,0,1,3.26-4.75,23.41,23.41,0,0,1,4.06-3.62l-1-1.59,2.26-4.15,9.87,5.57-2.65,4.87a8.47,8.47,0,0,0-6,.16,9.61,9.61,0,0,0-4.35,4.45,6.18,6.18,0,0,0-.87,3.68A3,3,0,0,0,84.37,151c1.27.71,3.11-.35,5.5-3.19.59-.69,1-1.23,1.39-1.61,3.44-3.88,6.39-6.31,8.87-7.26a8.54,8.54,0,0,1,7.58.76,9.59,9.59,0,0,1,5.05,7.18q.75,4.76-2.3,10.37a24.35,24.35,0,0,1-3.27,4.63,25.15,25.15,0,0,1-4.29,3.74l1,2-2.17,4Z" transform="translate(-7.55 -13.01)"/><path class="cls-3" d="M314.84,295.61l8.41,8.86-3.7,3.64a20.49,20.49,0,0,0-3.32-1.95,6.38,6.38,0,0,0-2.45-.59,5.07,5.07,0,0,0-2.53.62,16.93,16.93,0,0,0-3.36,2.76l-.7.68-3,2.95,6.2,6.52.9-.88a4,4,0,0,0,1.48-3,6.23,6.23,0,0,0-2-3.4l-.2-.2,2.93-2.88,10.3,10.85-2.93,2.88q-2.43-2.43-3.7-2.6c-.85-.13-1.82.34-2.9,1.41l-.93.91,7,7.42,4.15-4.07a17.73,17.73,0,0,0,3-3.56,3.78,3.78,0,0,0,.45-2.38,9.55,9.55,0,0,0-1.11-2.92,22.12,22.12,0,0,0-2.5-3.49l3.83-3.77,9.33,9.82-24.68,24.25-3.2-3.37,1.18-1.15a4.07,4.07,0,0,0,1.26-1.78c.07-.42-.32-1.08-1.15-2l-.17-.17-12.32-13c-.88-.92-1.53-1.38-2-1.37s-1.06.43-1.88,1.24l-1.15,1.12-3.19-3.37Zm-41.78,48.93,2.52-1.36a7,7,0,0,0,3.27-2.88,3.93,3.93,0,0,0-.43-3.46,4.49,4.49,0,0,0-2.61-2.58c-1-.23-2.3.1-4,1L269,336.79Zm-3.92,15.59-8.34-15.95c-.59-1.14-1.1-1.76-1.51-1.87a3.52,3.52,0,0,0-2.15.67l-1.44.77-2.16-4.12,19.77-10.69q5.24-2.83,8.76-2.42a6.9,6.9,0,0,1,5.44,4.07,6.66,6.66,0,0,1,.58,5,9.8,9.8,0,0,1-3.28,4.73c2.08-.82,3.71-.92,4.91-.33s2.7,2.64,4.52,6.11a6.84,6.84,0,0,0,1.39,2,1,1,0,0,0,1.19.14,1.1,1.1,0,0,0,.47-1.21,7.54,7.54,0,0,0-.9-2.41c-.05-.1-.14-.26-.28-.48l-.29-.5,2.91-1.57.33.57.33.57c1.42,2.72,1.9,5,1.44,6.82s-1.92,3.39-4.37,4.72-4.79,1.88-6.56,1.42-3.28-1.89-4.54-4.3l-1.27-2.44c-1-2-1.93-3.06-2.71-3.31s-2,0-3.59.91l-2.57,1.4,3.42,6.53c.59,1.14,1.1,1.77,1.53,1.88a3.38,3.38,0,0,0,2.13-.63l1.63-.88,2.16,4.13-17.28,9.35-2.16-4.13,1.44-.78c1-.55,1.58-1,1.72-1.46S269.73,361.27,269.14,360.13Zm-53.4.89q-1.12-8.13,3.2-13.47T232,341q8.73-1.26,14.32,2.66t6.72,12.05q1.13,8.13-3.21,13.44t-13.12,6.57q-8.7,1.24-14.29-2.67T215.74,361Zm17-15.08a5.06,5.06,0,0,0-4.35,3.6c-.72,2.09-.79,5.29-.19,9.6s1.54,7.49,2.79,9.31a5,5,0,0,0,5.12,2.25,5,5,0,0,0,4.35-3.59q1.08-3.12.19-9.6t-2.79-9.29A5,5,0,0,0,232.74,345.94Zm-43.3-5.49-.8,4.61-.53-.09a2.66,2.66,0,0,0-2,.12,3.77,3.77,0,0,0-.85,2.23l-1,5.87,8.88,1.59,1-5.87a3.77,3.77,0,0,0-.06-2.39,2.83,2.83,0,0,0-1.82-.8l-.51-.09.8-4.62,17.75,3.19-.8,4.61-1.62-.29a3.55,3.55,0,0,0-2.22.05c-.37.24-.66,1-.88,2.25l-3.08,17.78c-.22,1.28-.2,2.08.07,2.44a3.47,3.47,0,0,0,2.06.84l1.63.29-.8,4.61L187,373.59l.8-4.61.5.09a2.73,2.73,0,0,0,2-.14,3.65,3.65,0,0,0,.87-2.23l1.27-7.3-8.88-1.6-1.26,7.3a3.79,3.79,0,0,0,.05,2.41,2.73,2.73,0,0,0,1.79.81l.54.1-.8,4.61-17.75-3.19.8-4.61,1.6.29a3.92,3.92,0,0,0,2.19,0c.39-.2.7-1,.94-2.32l3.08-17.78q.33-1.92-.06-2.43a3.62,3.62,0,0,0-2.1-.81l-1.61-.29.8-4.62ZM140,356l2.3-4.05,1.26.74a7,7,0,0,0,2.06,1,.77.77,0,0,0,.74-.46,4.51,4.51,0,0,0,.32-.67,5.82,5.82,0,0,0,.2-.68l.74-3.67L140,343.7l-2.43,2.23a8.16,8.16,0,0,0-.86.8,2.54,2.54,0,0,0-.45.6c-.15.25-.09.54.17.89a5,5,0,0,0,1.34,1.06l1.39.82-2.3,4-12.59-7.39,2.3-4.06,1,.61a2.87,2.87,0,0,0,2.19.37,6.28,6.28,0,0,0,2.54-1.52L152,324.86l10.18,6-5.64,25.43a7.37,7.37,0,0,0-.23,3.31,3.33,3.33,0,0,0,1.53,1.5l1.47.86-2.3,4.06Zm8.62-12.7L151,333.1l-7.32,7.26ZM131.09,309l-3.36,3.2-1.26-1.38a4,4,0,0,0-1.72-1.31c-.41-.07-1,.3-1.91,1.12l-.17.17-15,14.18,1.49,1.63a20.55,20.55,0,0,0,3.14,3,4,4,0,0,0,2.18.69,6.54,6.54,0,0,0,2.93-.84,23.82,23.82,0,0,0,3.89-2.8l3.43,3.75-9.92,9.42L94,317l3.36-3.2,1.12,1.22a3.62,3.62,0,0,0,1.82,1.32c.44,0,1.13-.39,2-1.27l13-12.32c.92-.87,1.38-1.53,1.37-2a3.63,3.63,0,0,0-1.18-1.95l-1.11-1.21,3.36-3.2Z" transform="translate(-7.55 -13.01)"/><path class="cls-4" d="M216,102.38c62,0,112.58,51.45,112.58,114.55S278,331.48,216,331.48,103.42,280,103.42,216.93,154,102.38,216,102.38Z" transform="translate(-7.55 -13.01)"/><path class="cls-5" d="M216,102.38c62,0,112.58,51.45,112.58,114.55S278,331.48,216,331.48,103.42,280,103.42,216.93,154,102.38,216,102.38Z" transform="translate(-7.55 -13.01)"/><path class="cls-6" d="M249.55,120c-50.4-12.28-113.18,22.54-115.34,75.85l27.31.54c-.18-32,40.37-70.15,84.95-66.67a76.06,76.06,0,0,1,51.32,26.24c.17.2-16.45-28.21-48.24-36" transform="translate(-7.55 -13.01)"/><path class="cls-6" d="M202.73,195.82l-28.29-.54c7.5-49,77.62-76.46,113.65-38.57-35.82-18.84-77.5.95-85.36,39.11" transform="translate(-7.55 -13.01)"/><path class="cls-6" d="M284.17,162.61c-19.76-1-32.34,9.65-34.18,33.21H216.34c4.26-23.41,38.79-48.1,67.83-33.21" transform="translate(-7.55 -13.01)"/><path class="cls-6" d="M182.45,313.88C232.86,326.17,295.63,291.34,297.8,238l-27.32-.54c.19,32-40.37,70.15-85,66.67a76.11,76.11,0,0,1-51.32-26.25c-.17-.2,16.45,28.22,48.24,36" transform="translate(-7.55 -13.01)"/><path class="cls-6" d="M180.59,283.75c25.83-3.23,44.17-23.8,48.68-45.71l28.29.54c-4.81,31.4-38.9,58.69-74.15,56.23-14.94-1-30-7.67-39.5-17.66,12.78,6.72,22.67,8.36,36.68,6.6" transform="translate(-7.55 -13.01)"/><path class="cls-6" d="M147.83,271.24c19.77,1,32.34-9.64,34.18-33.2h33.66c-4.26,23.41-38.8,48.1-67.84,33.2" transform="translate(-7.55 -13.01)"/><path class="cls-7" d="M16.7,188.75H415c2.8,0,3.45,2.53,3.45,5.61V239.5c0,3.08-.66,5.61-3.45,5.61H16.7c-2.8,0-3.19-2.53-3.19-5.61V194.36C13.51,191.27,13.9,188.75,16.7,188.75Z" transform="translate(-7.55 -13.01)"/><path class="cls-8" d="M16.7,188.75H415c2.8,0,3.45,2.53,3.45,5.61V239.5c0,3.08-.66,5.61-3.45,5.61H16.7c-2.8,0-3.19-2.53-3.19-5.61V194.36c0-3.09.39-5.61,3.19-5.61" transform="translate(-7.55 -13.01)"/><path class="cls-3" d="M392.17,231.67l-3.42-8.58,3-1.7a19,19,0,0,0,4.13,4.94,6.86,6.86,0,0,0,4.22,1.73,3.33,3.33,0,0,0,2.4-.89,3,3,0,0,0,.93-2.27c0-1.41-1.3-2.73-3.88-4-.4-.2-.71-.35-.94-.45q-5.54-2.73-7.34-4.91a8.24,8.24,0,0,1-1.8-5.42,8.61,8.61,0,0,1,2.31-6,7.31,7.31,0,0,1,7.88-2.13,7.33,7.33,0,0,1,2.15,1.2l.14-1h2.35l3.07,7.91-3,1.72a15.69,15.69,0,0,0-3.27-4.59,5.32,5.32,0,0,0-3.56-1.52,2.86,2.86,0,0,0-2.06.72,2.52,2.52,0,0,0-.76,1.95q0,2.3,5.1,4.73c.7.33,1.25.58,1.62.77q4.35,2.15,5.9,4.18a8.17,8.17,0,0,1,1.56,5.12,9,9,0,0,1-2.43,6.49,8.15,8.15,0,0,1-6.17,2.55,8,8,0,0,1-2.72-.41,8.13,8.13,0,0,1-2.31-1.35l-.18,1.2Zm-29.38,0V228l.09,0,.08,0c1.3,0,2.11-.18,2.43-.56a5.21,5.21,0,0,0,.47-2.84V209.25a5.16,5.16,0,0,0-.47-2.83,2.58,2.58,0,0,0-2-.57h-.58v-3.66H374.4v3.66h-.25c-1,0-1.62.18-1.87.54a6.36,6.36,0,0,0-.37,2.86V215l4.77-6.66a11,11,0,0,0,.71-1.09,1.67,1.67,0,0,0,.21-.64.62.62,0,0,0-.4-.58,3.12,3.12,0,0,0-1.28-.19h-.32v-3.66H387v3.66h-.28a6.33,6.33,0,0,0-2.92.62A9.55,9.55,0,0,0,381,209l-4.08,5.25,6.11,10,0,0c1.5,2.44,3.19,3.67,5.09,3.67h.38v3.7H375.81V228h.41a1.9,1.9,0,0,0,1-.21.66.66,0,0,0,.34-.61,1.51,1.51,0,0,0-.14-.59,7.33,7.33,0,0,0-.53-1l-5-8.08v7.14a6.25,6.25,0,0,0,.38,2.86,1.84,1.84,0,0,0,1.58.54,1.68,1.68,0,0,0,.29,0l.24,0v3.7Zm-15.66-16.18h.79a6.7,6.7,0,0,0,4.25-1.05,4.23,4.23,0,0,0,1.25-3.43,4.61,4.61,0,0,0-1.38-3.63,6,6,0,0,0-4.08-1.23h-.83ZM338,231.67V228l.09,0a.16.16,0,0,0,.09,0c1.29,0,2.1-.18,2.42-.56a5.16,5.16,0,0,0,.48-2.84V209.24a5.22,5.22,0,0,0-.47-2.82,2.6,2.6,0,0,0-2-.57H338v-3.66h10.06a22.69,22.69,0,0,1,4.1.29,9.8,9.8,0,0,1,2.8.91,8.68,8.68,0,0,1,4.71,7.8,8.08,8.08,0,0,1-1.4,4.69,6.65,6.65,0,0,1-3.77,2.7l3,6.85a4.33,4.33,0,0,0,1.43,2,7,7,0,0,0,3.2.54v3.7h-8.68l-4.95-12.31h-1.34v5.25a5.31,5.31,0,0,0,.46,2.84,2.38,2.38,0,0,0,1.89.56,3.94,3.94,0,0,0,.42,0l.45,0v3.7Zm-22.79-14.75q0-7,2.88-11.17a9.14,9.14,0,0,1,15.33,0q2.88,4.16,2.88,11.17,0,6.81-3,11.08a8.86,8.86,0,0,1-15.16,0Q315.22,223.73,315.22,216.92Zm6.69,0a26.67,26.67,0,0,0,1,8.31c.7,2,1.64,3,2.84,3s2.13-1,2.81-3a34.16,34.16,0,0,0,0-16.61c-.68-2-1.62-3-2.82-3s-2.1,1-2.81,3A26.06,26.06,0,0,0,321.91,216.92Zm-32.27,14.75L283,209.29l0-.1q-1-3.34-3.39-3.34H279v-3.66h11.54v3.66l-.18,0-.17,0a2.05,2.05,0,0,0-1.06.2.81.81,0,0,0-.29.71,3.2,3.2,0,0,0,.1.65c.06.29.19.81.38,1.55l3.25,12,2.35-9.12-1.12-4.06a3.4,3.4,0,0,0-.8-1.63,2.25,2.25,0,0,0-1.4-.34v-3.66h10.53l0,3.66a5,5,0,0,0-1.87.26.89.89,0,0,0-.39.85,3.88,3.88,0,0,0,.07.72c0,.26.12.59.21,1l3.11,12,3-11.36c.14-.53.25-1,.33-1.33a5,5,0,0,0,.11-.86,1,1,0,0,0-.41-.88,6,6,0,0,0-2.24-.34v-3.66h9.84v3.66l-.17,0-.18,0a3,3,0,0,0-1.91.52,3,3,0,0,0-1,1.73l-6.29,23.53h-3.76L297,218.42l-3.51,13.25Zm-24.59-2.42a14.34,14.34,0,0,0-1.54.32,9,9,0,0,0-1.24.42c-.24.11-.62.31-1.14.61a11,11,0,0,1-5.37,1.67,8,8,0,0,1-3.69-.93,11.36,11.36,0,0,1-3.36-2.59,14.79,14.79,0,0,1-3-5.21,19.83,19.83,0,0,1-1-6.58,21.1,21.1,0,0,1,.77-5.82,17,17,0,0,1,2.26-4.89,11.8,11.8,0,0,1,3.5-3.41,7.46,7.46,0,0,1,4-1.25,5.86,5.86,0,0,1,2.23.41,7.89,7.89,0,0,1,2.08,1.35l.24-1.16h2.66l2.45,7.75-3.29,1.76a16.84,16.84,0,0,0-2.9-4.37,4.21,4.21,0,0,0-2.88-1.52q-1.95,0-3.15,2.89a20.67,20.67,0,0,0-1.2,7.74,21.81,21.81,0,0,0,1.37,8.51c.93,2.1,2.14,3.15,3.66,3.15a2,2,0,0,0,1.78-.82,4.62,4.62,0,0,0,.57-2.59v-3.53a3.14,3.14,0,0,0-.48-2,2.32,2.32,0,0,0-1.76-.54,2.12,2.12,0,0,0-.36,0,3.11,3.11,0,0,1-.4,0v-4.08h11.68v4.08h-.3c-.94,0-1.52.17-1.76.5a5.1,5.1,0,0,0-.36,2.47Zm-45.58,2.42V228l.12,0,.12,0q2.06,0,2.55-.54c.33-.37.5-1.32.5-2.86V209.25c0-1.54-.17-2.49-.5-2.86a3,3,0,0,0-2.16-.54h-.63v-3.66h10.45l6.33,17.57V209.25a5.31,5.31,0,0,0-.48-2.86,2.48,2.48,0,0,0-2-.58,3.78,3.78,0,0,0-.41,0l-.42,0v-3.66h10.27v3.66H243q-2.06,0-2.55.54c-.33.37-.5,1.32-.5,2.86v22.42h-5l-8.53-23.32v16.26a4.42,4.42,0,0,0,.57,2.78,3.81,3.81,0,0,0,2.55.58h1v3.7Zm-13.35,0V228l.09,0a.13.13,0,0,0,.08,0c1.3,0,2.11-.18,2.43-.56a5.21,5.21,0,0,0,.47-2.84V209.25a5.16,5.16,0,0,0-.47-2.83,2.6,2.6,0,0,0-2-.57h-.58v-3.66h12.19v3.66h-.18c-1.29,0-2.1.19-2.42.57a5.14,5.14,0,0,0-.48,2.83v15.36a5.31,5.31,0,0,0,.47,2.84,2.62,2.62,0,0,0,2,.56,2.36,2.36,0,0,0,.38,0l.21,0v3.7Zm-15.66-16.18h.79a6.7,6.7,0,0,0,4.25-1.05,4.27,4.27,0,0,0,1.25-3.43,4.58,4.58,0,0,0-1.39-3.63,6,6,0,0,0-4.07-1.23h-.83Zm-9.12,16.18V228l.09,0a.16.16,0,0,0,.09,0c1.29,0,2.1-.18,2.42-.56a5.16,5.16,0,0,0,.48-2.84V209.24a5.22,5.22,0,0,0-.47-2.82,2.61,2.61,0,0,0-2-.57h-.59v-3.66H191.4a22.69,22.69,0,0,1,4.1.29,9.73,9.73,0,0,1,2.79.91,8.71,8.71,0,0,1,4.72,7.8,8,8,0,0,1-1.41,4.69,6.62,6.62,0,0,1-3.77,2.7l3,6.85a4.32,4.32,0,0,0,1.42,2,7.11,7.11,0,0,0,3.2.54v3.7h-8.67l-4.95-12.31h-1.34v5.25a5.45,5.45,0,0,0,.45,2.84,2.41,2.41,0,0,0,1.9.56,3.69,3.69,0,0,0,.41,0l.46,0v3.7Zm-23.36,0V228l.09,0a.13.13,0,0,0,.08,0c1.3,0,2.1-.18,2.42-.56a5.16,5.16,0,0,0,.48-2.84V209.25a5.26,5.26,0,0,0-.47-2.83,2.6,2.6,0,0,0-2-.57H158v-3.66h17.88l3.53,7.83-3.08,1.6a10.26,10.26,0,0,0-3.25-4.31,7.93,7.93,0,0,0-4.7-1.33h-1.27v8.61h.62a2.45,2.45,0,0,0,1.94-.59c.32-.38.51-1.51.59-3.37h3.14v12.18h-3.14a7.36,7.36,0,0,0-.51-3.49,2.35,2.35,0,0,0-2.06-.73h-.58v9.29h1.34a9,9,0,0,0,5.32-1.41,11.69,11.69,0,0,0,3.55-4.83l3.1,1.21-3.61,8.82Zm-23.37,0V228l.09,0,.08,0c1.3,0,2.11-.18,2.43-.56a5.18,5.18,0,0,0,.47-2.84V209.25a5.16,5.16,0,0,0-.47-2.83,2.58,2.58,0,0,0-2-.57h-.58v-3.66h17.88L156,210l-3.07,1.6a10.34,10.34,0,0,0-3.25-4.31A8,8,0,0,0,145,206h-1.28v8.61h.62a2.48,2.48,0,0,0,1.95-.59c.32-.38.51-1.51.58-3.37H150v12.18h-3.15a7.36,7.36,0,0,0-.51-3.49,2.33,2.33,0,0,0-2.05-.73h-.59v9.29h1.35a9,9,0,0,0,5.32-1.41,11.77,11.77,0,0,0,3.55-4.83l3.09,1.21-3.61,8.82Zm-24.89,0V228l.12,0,.12,0q2.06,0,2.55-.54c.34-.37.5-1.32.5-2.86V209.25c0-1.54-.16-2.49-.5-2.86a3,3,0,0,0-2.15-.54h-.64v-3.66h10.45l6.33,17.57V209.25a5.31,5.31,0,0,0-.48-2.86,2.47,2.47,0,0,0-1.94-.58,3.6,3.6,0,0,0-.41,0l-.42,0v-3.66h10.27v3.66h-.25q-2.06,0-2.55.54c-.33.37-.49,1.32-.49,2.86v22.42h-5l-8.52-23.32v16.26c0,1.47.19,2.4.57,2.78a3.76,3.76,0,0,0,2.54.58h1v3.7Zm-13.35,0V228l.09,0a.16.16,0,0,0,.09,0c1.29,0,2.1-.18,2.42-.56a5.18,5.18,0,0,0,.48-2.84V209.25a5.26,5.26,0,0,0-.47-2.83,2.61,2.61,0,0,0-2-.57h-.59v-3.66h12.19v3.66h-.17q-2,0-2.43.57a5.16,5.16,0,0,0-.47,2.83v15.36a5.21,5.21,0,0,0,.47,2.84c.3.38,1,.56,2,.56a2.42,2.42,0,0,0,.38,0l.2,0v3.7Zm-3.88-2.42a14.66,14.66,0,0,0-1.53.32,9,9,0,0,0-1.24.42,12,12,0,0,0-1.14.61,11,11,0,0,1-5.38,1.67,8,8,0,0,1-3.68-.93,11.36,11.36,0,0,1-3.36-2.59,14.79,14.79,0,0,1-3-5.21,19.83,19.83,0,0,1-1-6.58,21.09,21.09,0,0,1,.78-5.82,16.73,16.73,0,0,1,2.26-4.89,11.69,11.69,0,0,1,3.5-3.41,7.46,7.46,0,0,1,4-1.25,5.77,5.77,0,0,1,2.22.41,7.58,7.58,0,0,1,2.08,1.35l.25-1.16h2.65l2.46,7.75L89,211.7a16.84,16.84,0,0,0-2.9-4.37,4.21,4.21,0,0,0-2.89-1.52q-1.94,0-3.14,2.89a20.67,20.67,0,0,0-1.2,7.74A21.81,21.81,0,0,0,80.23,225c.93,2.1,2.14,3.15,3.66,3.15a2,2,0,0,0,1.78-.82,4.62,4.62,0,0,0,.57-2.59v-3.53a3.14,3.14,0,0,0-.48-2,2.34,2.34,0,0,0-1.77-.54,2.14,2.14,0,0,0-.35,0,3.18,3.18,0,0,1-.41,0v-4.08H94.92v4.08h-.3c-.94,0-1.52.17-1.76.5a5.06,5.06,0,0,0-.37,2.47Zm-45.58,2.42V228l.13,0a.32.32,0,0,0,.12,0q2.06,0,2.55-.54c.33-.37.5-1.32.5-2.86V209.25c0-1.54-.17-2.49-.5-2.86a3,3,0,0,0-2.16-.54h-.64v-3.66H57.37l6.33,17.57V209.25a5.31,5.31,0,0,0-.48-2.86,2.48,2.48,0,0,0-1.95-.58,3.78,3.78,0,0,0-.41,0l-.42,0v-3.66H70.71v3.66h-.24q-2.06,0-2.55.54c-.34.37-.5,1.32-.5,2.86v22.42h-5l-8.53-23.32v16.26c0,1.47.19,2.4.57,2.78a3.81,3.81,0,0,0,2.55.58h1v3.7Zm-23.15,0V228l.09,0a.18.18,0,0,0,.09,0c1.3,0,2.1-.18,2.42-.56a5.16,5.16,0,0,0,.48-2.84V209.25a5.26,5.26,0,0,0-.47-2.83,2.6,2.6,0,0,0-2-.57h-.59v-3.66H41.64L45.18,210l-3.08,1.6a10.26,10.26,0,0,0-3.25-4.31,7.93,7.93,0,0,0-4.7-1.33H32.88v8.61h.62a2.45,2.45,0,0,0,1.94-.59c.32-.38.51-1.51.59-3.37h3.14v12.18H36a7.36,7.36,0,0,0-.51-3.49,2.35,2.35,0,0,0-2.06-.73h-.58v9.29h1.34a9,9,0,0,0,5.32-1.41,11.77,11.77,0,0,0,3.55-4.83l3.1,1.21-3.61,8.82Z" transform="translate(-7.55 -13.01)"/></svg>