<svg id="Layer_1" data-name="Layer 1" xmlns="http://www.w3.org/2000/svg" viewBox="0 0 285.96 104.81"><defs><style>.cls-1{fill:#cdc9c8;}.cls-1,.cls-2,.cls-4,.cls-6{fill-rule:evenodd;}.cls-2{fill:#585a5b;}.cls-3{fill:#fff;}.cls-4,.cls-8{fill:#2e3192;}.cls-11,.cls-5,.cls-7,.cls-9{fill:none;stroke:#fff;}.cls-11,.cls-5{stroke-linecap:round;stroke-linejoin:round;}.cls-5{stroke-width:2.33px;}.cls-10,.cls-6{fill:#ed1c24;}.cls-7,.cls-9{stroke-miterlimit:2.61;}.cls-7{stroke-width:1.97px;}.cls-9{stroke-width:2px;}.cls-11{stroke-width:2.03px;}</style></defs><path class="cls-1" d="M88,12.32a13,13,0,1,1-15.87,9.26A13,13,0,0,1,88,12.32m4.52-5.24.28-3.81a28.14,28.14,0,0,0-5-1.27L86.18,5.42l.6.16a19.26,19.26,0,0,0-4.68.06l.49-.14L80.92,2.06A28.51,28.51,0,0,0,76,3.44l.3,3.78L77.17,7a19.58,19.58,0,0,0-4.38,2.55l.44-.44L70.07,6.94a27.36,27.36,0,0,0-3.58,3.65l2.15,3.12.51-.51a19.19,19.19,0,0,0-2.31,3.95l.07-.28-3.81-.28a28.14,28.14,0,0,0-1.27,4.95l3.42,1.63.09-.34a19.22,19.22,0,0,0,0,3.94l-3.44,1.66a28.51,28.51,0,0,0,1.38,4.92l3.78-.3h0a19.59,19.59,0,0,0,1.82,3.14l-2.1,3.1a27.36,27.36,0,0,0,3.65,3.58l3-2.1a19.2,19.2,0,0,0,3.22,1.84l-.27,3.65a28.36,28.36,0,0,0,5,1.27l1.57-3.29a19.45,19.45,0,0,0,3.74,0l1.58,3.26a28.51,28.51,0,0,0,4.92-1.38l-.29-3.62a20.48,20.48,0,0,0,3.23-1.91l3,2a27.36,27.36,0,0,0,3.58-3.65l-2.06-3a19.48,19.48,0,0,0,1.82-3.26l3.63.26A28.14,28.14,0,0,0,107.35,28L104,26.8a19.26,19.26,0,0,0,0-4.09l3.34-1.62a28.51,28.51,0,0,0-1.38-4.92l-3.77.3a19.34,19.34,0,0,0-1.86-3.09l2.13-3.14a27.36,27.36,0,0,0-3.65-3.58L95.64,8.81l.21.21a18.5,18.5,0,0,0-3.54-2Z" transform="translate(0.02 -2)"/><path class="cls-2" d="M41,45.7A22.15,22.15,0,1,1,18.84,67.84,22.18,22.18,0,0,1,41,45.7M29.1,36.88a26.29,26.29,0,0,1,6.06-1.64l1.08-6.49A48.73,48.73,0,0,1,45,28.69l1.11,6.41a27,27,0,0,1,6,1.56l4.24-5A49.18,49.18,0,0,1,63.89,36l-2.15,6.11a33.58,33.58,0,0,1,4.4,4.28l6.09-2.13a47.88,47.88,0,0,1,4.41,7.52l-4.8,4.11a32.93,32.93,0,0,1,1.83,6.73l6.06.48a47.83,47.83,0,0,1,.06,8.72l-6.1,1.14a32.68,32.68,0,0,1-1.59,6.17l4.71,4a47.15,47.15,0,0,1-4.31,7.58l-5.83-2a33.72,33.72,0,0,1-4.48,4.54l2,5.85a47.88,47.88,0,0,1-7.52,4.41l-4-4.69a32.56,32.56,0,0,1-6.16,1.68l-1.15,6.1a46.94,46.94,0,0,1-8.72.06l-1.14-6.14a32.51,32.51,0,0,1-6.09-1.63l-4.12,4.79a47.58,47.58,0,0,1-7.58-4.31l2.13-6a58.81,58.81,0,0,1-4.31-4.5L9.41,91.09A48,48,0,0,1,5,83.56l4.94-4.23a32.65,32.65,0,0,1-1.68-6.5v.61l-6.35-1.2a46.94,46.94,0,0,1-.06-8.72l6.41-1.19v.51a34.4,34.4,0,0,1,1.62-6.41L4.83,52.18a47.67,47.67,0,0,1,4.31-7.59l6.35,2.16a36.14,36.14,0,0,1,4.16-4.22L17.4,36.26a47.16,47.16,0,0,1,7.52-4.42Zm6.13-1.67-.14,0m11.06-.16H46m6.11,1.55-.07,0M15.42,46.82l.13-.14m4.15-4.16-.1,0" transform="translate(0.02 -2)"/><path class="cls-3" d="M62.73,53l.45.81A2.2,2.2,0,0,0,62.54,55a1.86,1.86,0,0,0,.24,1.29,1.1,1.1,0,0,0,.49.51.54.54,0,0,0,.55,0c.27-.15.31-.6.13-1.36-.07-.25-.11-.45-.14-.59-.1-.46-.17-.82-.2-1.08a2.2,2.2,0,0,1,0-.6,2,2,0,0,1,.29-.81,1.72,1.72,0,0,1,.61-.55,1.9,1.9,0,0,1,1.7-.12,2.81,2.81,0,0,1,1.44,1.36,5,5,0,0,1,.43,1,4,4,0,0,1,.17,1h.37l.44.8L67.09,57l-.52-.94a1.72,1.72,0,0,0,.6-1,1.91,1.91,0,0,0-.28-1.19,1.22,1.22,0,0,0-.51-.52.57.57,0,0,0-.55,0c-.25.14-.27.56,0,1.25,0,.17.09.3.11.39a5.13,5.13,0,0,1,.27,2.23,1.7,1.7,0,0,1-.91,1.18,1.86,1.86,0,0,1-1.71.11,3.09,3.09,0,0,1-1.46-1.45,5,5,0,0,1-.42-1,4.78,4.78,0,0,1-.16-1.09l-.43,0-.42-.77Zm-1-7.25-1.22,4.76,1.95-2.09c.17-.19.25-.33.24-.41a.81.81,0,0,0-.25-.35l-.27-.24.62-.67,2.05,1.92-.61.66-.17-.15a.71.71,0,0,0-.37-.23q-.13,0-.39.27L60,52.82l-1.6-1.5,1.31-5-2.14,2.29c-.17.18-.25.32-.24.4s.09.21.25.36l.21.19-.62.67-2.06-1.93.62-.66.23.21a.67.67,0,0,0,.38.24c.09,0,.21-.09.38-.27l2.38-2.56c.17-.17.25-.31.24-.39s-.09-.21-.26-.37l-.23-.21.62-.66Zm-12.2-4a3.21,3.21,0,0,1,2-1.74,4.55,4.55,0,0,1,4.81,2.56,3.26,3.26,0,0,1-.3,2.66,3.22,3.22,0,0,1-2,1.73,3.93,3.93,0,0,1-2.83-.49,3.82,3.82,0,0,1-2-2.07A3.19,3.19,0,0,1,49.55,41.76Zm4.42-.4a1,1,0,0,0-1.1.06,4.28,4.28,0,0,0-1.12,1.48,4.27,4.27,0,0,0-.61,1.78,1,1,0,0,0,.55,1,1,1,0,0,0,1.1-.06,4.18,4.18,0,0,0,1.12-1.48,4.42,4.42,0,0,0,.62-1.78A1,1,0,0,0,54,41.36Zm-12.16,0,.91.13a2.29,2.29,0,0,0,.59,1.25,1.93,1.93,0,0,0,1.17.58,1.22,1.22,0,0,0,.71-.08.59.59,0,0,0,.33-.44c0-.31-.29-.61-1-.93a4.6,4.6,0,0,1-.55-.24c-.43-.2-.76-.36-1-.49a2.35,2.35,0,0,1-.49-.34,1.8,1.8,0,0,1-.47-.71,1.71,1.71,0,0,1-.08-.82,1.92,1.92,0,0,1,.93-1.44,2.86,2.86,0,0,1,2-.32,4.5,4.5,0,0,1,1.08.27,4.21,4.21,0,0,1,.94.49l.22-.29.91.12-.31,2.2-1.07-.15a1.72,1.72,0,0,0-.44-1.08A1.91,1.91,0,0,0,45,38.63a1.22,1.22,0,0,0-.73.09.59.59,0,0,0-.34.44c0,.28.28.54,1,.79l.39.14a5.13,5.13,0,0,1,1.94,1.13,1.71,1.71,0,0,1,.39,1.44,1.87,1.87,0,0,1-.94,1.43,3.07,3.07,0,0,1-2,.29,4.66,4.66,0,0,1-2-.81l-.29.32-.87-.12ZM35.59,38l3,3.88L38.14,39c0-.25-.1-.4-.17-.44a.72.72,0,0,0-.43,0l-.36,0L37,37.75l2.78-.44.14.89-.23,0a.67.67,0,0,0-.41.15.72.72,0,0,0,0,.47l.77,4.88-2.16.35L34.74,40,35.22,43a.74.74,0,0,0,.17.44.72.72,0,0,0,.44,0l.28,0,.14.9-2.78.44-.15-.89.31,0c.23,0,.37-.09.42-.16s.06-.23,0-.47l-.55-3.45c0-.24-.09-.38-.17-.43a.65.65,0,0,0-.44,0l-.31,0-.14-.9Zm-5.36,8.54-.42-.8.25-.13a1.55,1.55,0,0,0,.38-.25.17.17,0,0,0,0-.17,1.25,1.25,0,0,0-.08-.12l-.09-.1-.52-.5-1.52.81.11.63a1.81,1.81,0,0,0,0,.22.46.46,0,0,0,.05.14s.08.07.17.06a.89.89,0,0,0,.31-.11l.28-.15.42.8-2.52,1.34-.43-.8.21-.11a.53.53,0,0,0,.29-.33,1.29,1.29,0,0,0,0-.57l-.79-5.06,2.05-1.09L32,43.78a1.48,1.48,0,0,0,.51.38.7.7,0,0,0,.41-.1l.3-.16.42.8Zm-1.18-2.74-1.42-1.44.43,2Zm-9.39,2.51.62.66L20.2,47c-.14.13-.21.24-.21.32s.08.22.24.4l.79.84,1.29-1.21-.78-.84c-.17-.18-.29-.27-.38-.27s-.2.06-.34.19l-.07.07-.62-.66,2.59-2.42.62.66-.23.22a.67.67,0,0,0-.26.36c0,.08.07.22.24.4l2.38,2.55q.25.27.39.27a.68.68,0,0,0,.37-.22l.24-.23.62.67-2.6,2.41-.61-.66.07-.07c.14-.13.21-.23.21-.32s-.07-.22-.24-.4l-1-1-1.29,1.21,1,1c.17.18.29.27.38.27s.2-.06.34-.19l.08-.07L24,51l-2.59,2.42-.62-.66.24-.22a1,1,0,0,0,.26-.34c0-.09-.07-.23-.25-.42l-2.38-2.55c-.17-.19-.3-.28-.38-.28a.77.77,0,0,0-.38.24l-.23.22-.62-.67ZM16.42,57.91l.44-.81a2.36,2.36,0,0,0,1.38-.1,2,2,0,0,0,1-.89,1.1,1.1,0,0,0,.17-.69.57.57,0,0,0-.29-.47c-.27-.15-.68.06-1.22.62l-.43.42q-.51.49-.81.75a2.07,2.07,0,0,1-.49.33,1.82,1.82,0,0,1-.84.19,1.69,1.69,0,0,1-.79-.22,1.91,1.91,0,0,1-1-1.38,2.9,2.9,0,0,1,.4-1.94,4.76,4.76,0,0,1,.64-.91,3.83,3.83,0,0,1,.8-.7l-.2-.31.44-.81,2,1.08L17,53a1.78,1.78,0,0,0-1.17,0,2,2,0,0,0-.86.86,1.23,1.23,0,0,0-.17.72.58.58,0,0,0,.29.47c.25.14.61-.07,1.08-.62l.27-.31a5,5,0,0,1,1.75-1.4,1.69,1.69,0,0,1,1.49.14,1.89,1.89,0,0,1,1,1.39,3.12,3.12,0,0,1-.45,2,4.53,4.53,0,0,1-.65.89,4.2,4.2,0,0,1-.84.72l.19.38-.42.77Z" transform="translate(0.02 -2)"/><path class="cls-3" d="M60.42,83.05l1.65,1.72-.73.7a4.55,4.55,0,0,0-.65-.38,1.28,1.28,0,0,0-.48-.11,1,1,0,0,0-.5.12,3.17,3.17,0,0,0-.66.53l-.14.13-.59.57,1.22,1.26.18-.17a.75.75,0,0,0,.29-.57,1.17,1.17,0,0,0-.39-.66l0,0,.58-.55,2,2.09-.57.56a1.67,1.67,0,0,0-.73-.5.71.71,0,0,0-.57.27l-.19.18,1.39,1.43.81-.79a3.24,3.24,0,0,0,.6-.68A.78.78,0,0,0,63,87.7a2.15,2.15,0,0,0-.22-.57,4.46,4.46,0,0,0-.49-.67l.75-.73,1.84,1.9L60,92.31l-.63-.65.23-.22c.16-.15.24-.26.25-.34s-.06-.21-.22-.38l0,0L57.2,88.17c-.17-.17-.3-.26-.39-.26s-.2.08-.37.24l-.22.22-.63-.66ZM52.2,92.51l.5-.26a1.4,1.4,0,0,0,.64-.56.76.76,0,0,0-.09-.67.9.9,0,0,0-.51-.5,1.21,1.21,0,0,0-.78.2L51.4,91Zm-.77,3-1.64-3.08q-.18-.33-.3-.36a.7.7,0,0,0-.42.13l-.29.15-.42-.8,3.89-2.06A3,3,0,0,1,54,89a1.35,1.35,0,0,1,1.07.78,1.28,1.28,0,0,1,.12,1,2,2,0,0,1-.65.92,1.25,1.25,0,0,1,1-.07,2.94,2.94,0,0,1,.88,1.18,1.38,1.38,0,0,0,.28.4.18.18,0,0,0,.23,0A.21.21,0,0,0,57,93a1.8,1.8,0,0,0-.18-.47l-.06-.09a.93.93,0,0,1,0-.1l.57-.3.06.11a.72.72,0,0,0,.07.11,1.9,1.9,0,0,1,.28,1.32,1.56,1.56,0,0,1-.86.91,1.84,1.84,0,0,1-1.29.27,1.47,1.47,0,0,1-.89-.83l-.25-.47c-.2-.38-.38-.59-.53-.64a1,1,0,0,0-.71.18l-.51.27.68,1.26q.16.33.3.36t.42-.12l.32-.17.42.8-3.4,1.81-.42-.8.28-.15c.2-.11.31-.2.34-.28A.69.69,0,0,0,51.43,95.52Zm-10.5.18a3.2,3.2,0,0,1,.63-2.61A4.55,4.55,0,0,1,47,92.34a3.62,3.62,0,0,1,.69,4.92,3.89,3.89,0,0,1-2.58,1.27A3.88,3.88,0,0,1,42.25,98,3.17,3.17,0,0,1,40.93,95.7Zm3.34-2.92a1,1,0,0,0-.86.7,4.2,4.2,0,0,0,0,1.85,4.29,4.29,0,0,0,.55,1.8,1,1,0,0,0,1,.44,1,1,0,0,0,.86-.7,4.2,4.2,0,0,0,0-1.85,4.36,4.36,0,0,0-.54-1.8A1,1,0,0,0,44.27,92.78Zm-8.52-1.06-.15.89-.11,0a.53.53,0,0,0-.38,0,.7.7,0,0,0-.17.43l-.2,1.13,1.74.31.2-1.13a.68.68,0,0,0,0-.47c0-.07-.16-.12-.35-.15l-.1,0,.15-.89,3.49.61-.15.9-.32-.06a.74.74,0,0,0-.44,0,.7.7,0,0,0-.17.43l-.61,3.44c0,.25,0,.4,0,.47a.6.6,0,0,0,.4.16l.32.06-.16.89-3.49-.61.16-.89h.1a.52.52,0,0,0,.39,0,.74.74,0,0,0,.17-.44l.25-1.41-1.75-.31-.25,1.42a.72.72,0,0,0,0,.46.6.6,0,0,0,.36.16l.1,0-.16.89-3.49-.62.16-.89.32.06a.82.82,0,0,0,.43,0c.07,0,.13-.18.18-.44l.61-3.44a.72.72,0,0,0,0-.47.69.69,0,0,0-.41-.16l-.31,0,.15-.9Zm-9.73,3,.45-.78.25.14a1.69,1.69,0,0,0,.41.19.15.15,0,0,0,.14-.09l.07-.13,0-.13.14-.71L26,92.35l-.48.43-.17.15-.09.12a.17.17,0,0,0,0,.17.84.84,0,0,0,.26.21l.28.15-.46.79-2.47-1.43.45-.78.2.11a.58.58,0,0,0,.44.07,1.18,1.18,0,0,0,.49-.29l3.88-3.34,2,1.15-1.11,4.92a1.57,1.57,0,0,0-.05.64.63.63,0,0,0,.31.29l.29.17-.46.78Zm1.7-2.45.46-2-1.44,1.4Zm-3.44-6.62-.66.62L23.37,86c-.15-.15-.26-.24-.34-.25s-.21.06-.38.21l0,0-2.94,2.74.29.31a3.83,3.83,0,0,0,.62.57.71.71,0,0,0,.43.14,1.34,1.34,0,0,0,.57-.16,4.6,4.6,0,0,0,.77-.55l.67.73-2,1.82L17,87.19l.66-.61.22.23a.67.67,0,0,0,.36.26.77.77,0,0,0,.4-.25l2.55-2.38c.18-.17.27-.29.27-.38a.71.71,0,0,0-.23-.37L21,83.45l.66-.62Z" transform="translate(0.02 -2)"/><path class="cls-4" d="M47.58,49.1c-9.91-2.38-22.26,4.36-22.69,14.66l5.37.1c0-6.18,8-13.56,16.72-12.88a15.08,15.08,0,0,1,10.09,5.07,16.59,16.59,0,0,0-9.49-6.95" transform="translate(0.02 -2)"/><path class="cls-4" d="M48,54.92a11.34,11.34,0,0,0-9.58,8.84l-5.56-.1c.94-6.07,7.65-11.35,14.58-10.87a12.29,12.29,0,0,1,7.77,3.41A11.1,11.1,0,0,0,48,54.92" transform="translate(0.02 -2)"/><path class="cls-4" d="M54.39,57.34c-3.89-.19-6.36,1.87-6.72,6.42H41.05c.83-4.53,7.63-9.3,13.34-6.42" transform="translate(0.02 -2)"/><path class="cls-4" d="M34.38,86.59C44.3,89,56.64,82.23,57.07,71.92l-5.37-.1C51.73,78,43.76,85.38,35,84.71a15,15,0,0,1-10.1-5.08,16.54,16.54,0,0,0,9.49,7" transform="translate(0.02 -2)"/><path class="cls-4" d="M34,80.76a11.3,11.3,0,0,0,9.57-8.84l5.57.11C48.21,78.1,41.5,83.37,34.57,82.9a12.24,12.24,0,0,1-7.77-3.42A11.12,11.12,0,0,0,34,80.76" transform="translate(0.02 -2)"/><path class="cls-4" d="M27.57,78.34c3.89.2,6.36-1.86,6.72-6.42h6.63c-.84,4.53-7.64,9.3-13.35,6.42" transform="translate(0.02 -2)"/><path class="cls-5" d="M1.78,62.39H80.13c.56,0,.68.49.68,1.09v8.73c0,.59-.13,1.08-.68,1.08H1.78c-.55,0-.63-.49-.63-1.08V63.48C1.15,62.88,1.22,62.39,1.78,62.39Z" transform="translate(0.02 -2)"/><path class="cls-6" d="M1.78,62.39H80.13c.56,0,.68.49.68,1.09v8.73c0,.59-.13,1.08-.68,1.08H1.78c-.55,0-.63-.49-.63-1.08V63.48c0-.6.07-1.09.63-1.09" transform="translate(0.02 -2)"/><path class="cls-3" d="M75.63,70.69,75,69l.58-.33a3.49,3.49,0,0,0,.82,1,1.33,1.33,0,0,0,.82.33.64.64,0,0,0,.48-.17.57.57,0,0,0,.18-.44c0-.27-.26-.52-.76-.76l-.19-.09a4.56,4.56,0,0,1-1.44-1,1.56,1.56,0,0,1-.36-1,1.69,1.69,0,0,1,.46-1.17,1.42,1.42,0,0,1,1.07-.48,1.47,1.47,0,0,1,.48.07,1.75,1.75,0,0,1,.42.23l0-.19H78l.61,1.53-.59.34a3,3,0,0,0-.64-.89,1,1,0,0,0-.7-.29.59.59,0,0,0-.41.13.5.5,0,0,0-.15.38c0,.3.34.6,1,.92l.31.15a3.39,3.39,0,0,1,1.17.8,1.62,1.62,0,0,1,.3,1,1.74,1.74,0,0,1-.48,1.26,1.59,1.59,0,0,1-1.21.49,1.8,1.8,0,0,1-.54-.08,1.49,1.49,0,0,1-.45-.26l0,.23Zm-5.78,0V70h0c.26,0,.42,0,.48-.11a1.05,1.05,0,0,0,.09-.55v-3a1,1,0,0,0-.09-.55.53.53,0,0,0-.4-.11h-.11V65h2.28v.71h0c-.19,0-.32,0-.36.1a1.21,1.21,0,0,0-.08.56v1.11l.94-1.29a1.86,1.86,0,0,0,.14-.21.24.24,0,0,0,0-.12.11.11,0,0,0-.08-.11.51.51,0,0,0-.25,0h-.06V65H74.6v.71h0a1.28,1.28,0,0,0-.58.12,2,2,0,0,0-.53.5l-.81,1,1.21,1.93h0a1.23,1.23,0,0,0,1,.71h.08v.71H72.41V70h.08a.45.45,0,0,0,.19,0,.13.13,0,0,0,.07-.12.35.35,0,0,0,0-.12.89.89,0,0,0-.1-.19l-1-1.56v1.38a1.18,1.18,0,0,0,.08.55A.36.36,0,0,0,72,70h.1v.71Zm-3.08-3.13h.16a1.28,1.28,0,0,0,.83-.2A.79.79,0,0,0,68,66.7a.86.86,0,0,0-.28-.7,1.16,1.16,0,0,0-.8-.24h-.16ZM65,70.69V70h0a.71.71,0,0,0,.48-.11,1.05,1.05,0,0,0,.09-.55v-3a1,1,0,0,0-.09-.55.53.53,0,0,0-.4-.11H65V65h2a4.32,4.32,0,0,1,.81.06,1.78,1.78,0,0,1,.55.18,1.57,1.57,0,0,1,.68.62,1.61,1.61,0,0,1,.25.88,1.49,1.49,0,0,1-.28.91,1.27,1.27,0,0,1-.74.52l.58,1.33a.87.87,0,0,0,.28.38,1.41,1.41,0,0,0,.63.11v.71H68l-1-2.38h-.26v1a1.05,1.05,0,0,0,.09.55.48.48,0,0,0,.37.11h.17v.71Zm-4.49-2.85a3.68,3.68,0,0,1,.57-2.16,1.82,1.82,0,0,1,3,0,3.68,3.68,0,0,1,.57,2.16A3.61,3.61,0,0,1,64.06,70a1.78,1.78,0,0,1-1.5.83A1.74,1.74,0,0,1,61.08,70,3.61,3.61,0,0,1,60.49,67.84Zm1.32,0a5.23,5.23,0,0,0,.2,1.61c.14.38.32.58.56.58s.42-.2.55-.59a6.54,6.54,0,0,0,0-3.21c-.13-.38-.31-.57-.55-.57s-.41.19-.55.59A4.85,4.85,0,0,0,61.81,67.84Zm-6.35,2.85-1.3-4.32v0c-.13-.43-.35-.65-.66-.65h-.11V65h2.27v.71h-.07a.37.37,0,0,0-.21,0,.14.14,0,0,0-.06.13,1.05,1.05,0,0,0,0,.13c0,.06,0,.16.08.3l.64,2.32.46-1.76-.22-.79a.62.62,0,0,0-.16-.31.43.43,0,0,0-.28-.07V65h2.08v.71a1.12,1.12,0,0,0-.37,0,.18.18,0,0,0-.07.17.62.62,0,0,0,0,.13,1.62,1.62,0,0,0,0,.19l.61,2.32.59-2.2c0-.1.05-.19.07-.26a1.37,1.37,0,0,0,0-.16.18.18,0,0,0-.08-.17,1,1,0,0,0-.44-.07V65h1.94v.71h-.07a.59.59,0,0,0-.38.1.56.56,0,0,0-.19.33l-1.24,4.55h-.74l-.71-2.56-.69,2.56Zm-4.84-.46a1.33,1.33,0,0,0-.3.06,1.35,1.35,0,0,0-.24.08l-.23.11a2.13,2.13,0,0,1-1.05.33,1.64,1.64,0,0,1-.73-.18,2.4,2.4,0,0,1-.66-.5,2.75,2.75,0,0,1-.59-1,3.72,3.72,0,0,1-.21-1.27,4.17,4.17,0,0,1,.15-1.13,3.27,3.27,0,0,1,.45-.94,2.17,2.17,0,0,1,.69-.66,1.48,1.48,0,0,1,.78-.24,1.08,1.08,0,0,1,.44.08,1.46,1.46,0,0,1,.41.26l0-.23h.52l.48,1.5-.65.34a2.91,2.91,0,0,0-.57-.84.81.81,0,0,0-.56-.3c-.26,0-.46.19-.62.56a3.89,3.89,0,0,0-.24,1.5,4.09,4.09,0,0,0,.27,1.64c.18.41.42.61.72.61a.38.38,0,0,0,.35-.16.82.82,0,0,0,.11-.5v-.68a.62.62,0,0,0-.09-.39.46.46,0,0,0-.35-.1H48.8v-.79h2.3v.79H51c-.18,0-.3,0-.34.1a.88.88,0,0,0-.08.47Zm-9,.46V70h.05a.75.75,0,0,0,.5-.11,1,1,0,0,0,.1-.55v-3a1,1,0,0,0-.1-.55.62.62,0,0,0-.43-.11h-.12V65h2.05L45,68.39v-2a1,1,0,0,0-.09-.55.5.5,0,0,0-.39-.12h-.16V65h2v.71h-.05c-.27,0-.44,0-.5.11s-.1.25-.1.55v4.33h-1L43,66.18v3.15a.84.84,0,0,0,.11.53.72.72,0,0,0,.5.12h.21v.71Zm-2.63,0V70h0a.67.67,0,0,0,.47-.11.94.94,0,0,0,.1-.55v-3a1,1,0,0,0-.09-.55.56.56,0,0,0-.4-.11H39V65h2.4v.71h0c-.26,0-.42,0-.48.11a1,1,0,0,0-.09.55v3a1.05,1.05,0,0,0,.09.55.53.53,0,0,0,.4.11h.11v.71ZM36,67.56h.16a1.28,1.28,0,0,0,.83-.2.79.79,0,0,0,.25-.66.88.88,0,0,0-.27-.7,1.18,1.18,0,0,0-.8-.24H36Zm-1.79,3.13V70h0c.26,0,.42,0,.48-.11a1.05,1.05,0,0,0,.09-.55v-3a1,1,0,0,0-.09-.55.53.53,0,0,0-.4-.11h-.11V65h2a4.27,4.27,0,0,1,.8.06,1.78,1.78,0,0,1,.55.18,1.57,1.57,0,0,1,.68.62,1.61,1.61,0,0,1,.25.88,1.55,1.55,0,0,1-.27.91,1.32,1.32,0,0,1-.75.52L38,69.49a.74.74,0,0,0,.28.38,1.34,1.34,0,0,0,.63.11v.71H37.19l-1-2.38H36v1a1.05,1.05,0,0,0,.09.55.51.51,0,0,0,.38.11h.17v.71Zm-4.6,0V70h0a.67.67,0,0,0,.47-.11.94.94,0,0,0,.1-.55v-3a1,1,0,0,0-.09-.55.55.55,0,0,0-.4-.11h-.12V65h3.52l.7,1.52-.61.31a2,2,0,0,0-.64-.84,1.58,1.58,0,0,0-.92-.25h-.25v1.66h.12a.51.51,0,0,0,.38-.11,1.55,1.55,0,0,0,.12-.66h.61V69H32a1.52,1.52,0,0,0-.1-.68.49.49,0,0,0-.41-.14h-.11V70h.26a1.84,1.84,0,0,0,1.05-.27,2.42,2.42,0,0,0,.7-.94L34,69l-.71,1.7Zm-4.59,0V70h0c.26,0,.42,0,.48-.11a1.05,1.05,0,0,0,.09-.55v-3a1,1,0,0,0-.09-.55.53.53,0,0,0-.4-.11H25V65h3.51l.7,1.52-.61.31a2,2,0,0,0-.63-.84,1.61,1.61,0,0,0-.93-.25h-.25v1.66h.12a.51.51,0,0,0,.38-.11,1.28,1.28,0,0,0,.12-.66H28V69h-.62a1.39,1.39,0,0,0-.1-.68.48.48,0,0,0-.4-.14h-.12V70H27a1.82,1.82,0,0,0,1.05-.27,2.33,2.33,0,0,0,.7-.94l.61.24-.71,1.7Zm-4.9,0V70h.05c.27,0,.44,0,.5-.11a.91.91,0,0,0,.1-.55v-3c0-.3,0-.48-.1-.55a.57.57,0,0,0-.42-.11h-.13V65h2.06l1.24,3.4v-2a1,1,0,0,0-.09-.55.47.47,0,0,0-.38-.12h-.17V65h2v.71H24.7a.77.77,0,0,0-.5.11,1,1,0,0,0-.09.55v4.33h-1l-1.68-4.51v3.15a.84.84,0,0,0,.11.53.74.74,0,0,0,.5.12h.21v.71Zm-2.62,0V70h0a.71.71,0,0,0,.48-.11,1.05,1.05,0,0,0,.09-.55v-3a1,1,0,0,0-.09-.55.53.53,0,0,0-.4-.11h-.11V65h2.39v.71h0a.71.71,0,0,0-.48.11,1,1,0,0,0-.09.55v3a1.05,1.05,0,0,0,.09.55.53.53,0,0,0,.4.11h.11v.71Zm-.77-.46a1.33,1.33,0,0,0-.3.06,1.35,1.35,0,0,0-.24.08l-.23.11a2.13,2.13,0,0,1-1.05.33,1.64,1.64,0,0,1-.73-.18,2.4,2.4,0,0,1-.66-.5,2.75,2.75,0,0,1-.59-1,3.72,3.72,0,0,1-.21-1.27,4.17,4.17,0,0,1,.15-1.13,3.27,3.27,0,0,1,.45-.94,2.17,2.17,0,0,1,.69-.66,1.48,1.48,0,0,1,.78-.24,1.08,1.08,0,0,1,.44.08,1.46,1.46,0,0,1,.41.26l.05-.23h.52l.48,1.5-.65.34a2.91,2.91,0,0,0-.57-.84.81.81,0,0,0-.56-.3c-.26,0-.46.19-.62.56a3.89,3.89,0,0,0-.24,1.5,4.09,4.09,0,0,0,.27,1.64c.18.41.42.61.72.61a.38.38,0,0,0,.35-.16.82.82,0,0,0,.11-.5v-.68a.62.62,0,0,0-.09-.39.46.46,0,0,0-.35-.1h-.15v-.79h2.3v.79H17.1c-.18,0-.3,0-.35.1a1,1,0,0,0-.07.47Zm-9,.46V70h0a.75.75,0,0,0,.5-.11,1,1,0,0,0,.1-.55v-3a1,1,0,0,0-.1-.55.62.62,0,0,0-.43-.11H7.72V65H9.77L11,68.39v-2a1,1,0,0,0-.09-.55.5.5,0,0,0-.39-.12h-.16V65h2v.71h-.05c-.27,0-.44,0-.5.11s-.1.25-.1.55v4.33h-1L9.1,66.18v3.15a.84.84,0,0,0,.11.53.72.72,0,0,0,.5.12h.21v.71Zm-4.56,0V70h0a.72.72,0,0,0,.48-.11,1.05,1.05,0,0,0,.09-.55v-3a1,1,0,0,0-.09-.55.55.55,0,0,0-.4-.11H3.16V65H6.68l.7,1.52-.61.31A2,2,0,0,0,6.13,66a1.56,1.56,0,0,0-.92-.25H5v1.66h.12a.51.51,0,0,0,.38-.11,1.55,1.55,0,0,0,.12-.66H6.2V69H5.58a1.52,1.52,0,0,0-.1-.68.49.49,0,0,0-.41-.14H5V70h.26a1.82,1.82,0,0,0,1-.27,2.42,2.42,0,0,0,.7-.94l.61.24-.71,1.7Z" transform="translate(0.02 -2)"/><path class="cls-7" d="M274.36,93.21l2.53-.27a3.34,3.34,0,0,0,.92,2,2.69,2.69,0,0,0,1.88.64,2.73,2.73,0,0,0,1.88-.57,1.72,1.72,0,0,0,.64-1.32,1.28,1.28,0,0,0-.27-.82,2,2,0,0,0-.93-.59c-.3-.12-1-.31-2.07-.6A6.78,6.78,0,0,1,276,90.3a3.65,3.65,0,0,1-1.18-2.76,3.82,3.82,0,0,1,.55-2A3.6,3.6,0,0,1,277,84.19a6.13,6.13,0,0,1,2.52-.47,5.13,5.13,0,0,1,3.63,1.14,4.12,4.12,0,0,1,1.28,3l-2.6.09a2,2,0,0,0-2.34-2,2.73,2.73,0,0,0-1.76.5,1,1,0,0,0-.41.85,1.08,1.08,0,0,0,.39.83,6.57,6.57,0,0,0,2.38.92,11.56,11.56,0,0,1,2.79,1,3.72,3.72,0,0,1,1.42,1.39,4.31,4.31,0,0,1,.51,2.18,4.2,4.2,0,0,1-.61,2.2,3.74,3.74,0,0,1-1.74,1.52,6.78,6.78,0,0,1-2.8.5,4.72,4.72,0,0,1-5.3-4.67ZM262.1,97.64V84h2.61v6L270,84h3.49l-4.85,5.32,5.11,8.35h-3.36l-3.54-6.42-2.09,2.28v4.14Zm-10.4-7.89h1.92a9.4,9.4,0,0,0,2.33-.17,1.39,1.39,0,0,0,.73-.58,1.88,1.88,0,0,0,.26-1,1.71,1.71,0,0,0-.35-1.12,1.58,1.58,0,0,0-1-.54c-.21,0-.85,0-1.9,0h-2Zm-2.61,7.89V84h5.47a9,9,0,0,1,3,.36,3.11,3.11,0,0,1,1.5,1.31,4.19,4.19,0,0,1,.56,2.16,3.79,3.79,0,0,1-.85,2.54,4,4,0,0,1-2.54,1.26,6,6,0,0,1,1.39,1.15A16.7,16.7,0,0,1,259.09,95l1.57,2.67h-3.11l-1.86-3a16.78,16.78,0,0,0-1.37-2,2,2,0,0,0-.78-.57,4.24,4.24,0,0,0-1.32-.15h-.52v5.71Zm-11.84-6.85a5.33,5.33,0,0,0,1,3.53,3.34,3.34,0,0,0,5.12,0,5.52,5.52,0,0,0,1-3.58,5.35,5.35,0,0,0-1-3.51,3.18,3.18,0,0,0-2.58-1.15,3.23,3.23,0,0,0-2.59,1.17A5.37,5.37,0,0,0,237.25,90.79Zm-2.67.09a9.26,9.26,0,0,1,.59-3.51,6.41,6.41,0,0,1,1.2-1.88A5,5,0,0,1,238,84.26a6.71,6.71,0,0,1,2.77-.54,5.84,5.84,0,0,1,4.56,1.88,7.46,7.46,0,0,1,1.7,5.22A7.46,7.46,0,0,1,245.37,96a5.8,5.8,0,0,1-4.53,1.87A5.89,5.89,0,0,1,236.27,96,7.34,7.34,0,0,1,234.58,90.88Zm-14.65,6.76L216.9,84h2.68l1.91,9.39L223.84,84h3.1l2.24,9.55,2-9.55h2.62l-3.1,13.67h-2.79l-2.53-10.22-2.56,10.22Zm-14.75-5V90.3h5.59v5.46a6.8,6.8,0,0,1-2.37,1.48,8,8,0,0,1-3.13.64,6.66,6.66,0,0,1-3.52-.9,5.68,5.68,0,0,1-2.25-2.58,8.8,8.8,0,0,1-.75-3.65,8.33,8.33,0,0,1,.84-3.8,5.83,5.83,0,0,1,2.46-2.55,6.27,6.27,0,0,1,3.08-.68,5.85,5.85,0,0,1,3.75,1.07,4.92,4.92,0,0,1,1.73,3l-2.59.51a2.91,2.91,0,0,0-1-1.59,2.94,2.94,0,0,0-1.87-.58,3.42,3.42,0,0,0-2.7,1.14,5.07,5.07,0,0,0-1,3.41,5.59,5.59,0,0,0,1,3.66,3.32,3.32,0,0,0,2.67,1.22,4.37,4.37,0,0,0,1.63-.34,5.76,5.76,0,0,0,1.4-.83V92.62Zm-19,5V84h2.53L194,93.13V84h2.41V97.64h-2.61l-5.21-9v9Zm-5.08,0V84h2.61V97.64Zm-10.27-7.89h1.92a9.4,9.4,0,0,0,2.33-.17,1.39,1.39,0,0,0,.73-.58,1.88,1.88,0,0,0,.26-1,1.71,1.71,0,0,0-.35-1.12,1.58,1.58,0,0,0-1-.54c-.22,0-.85,0-1.9,0h-2Zm-2.61,7.89V84h5.47a9.1,9.1,0,0,1,3,.36,3,3,0,0,1,1.49,1.31,4.1,4.1,0,0,1,.57,2.16,3.79,3.79,0,0,1-.85,2.54,4,4,0,0,1-2.54,1.26,6,6,0,0,1,1.39,1.15A16.7,16.7,0,0,1,178.26,95l1.57,2.67h-3.11l-1.86-3a18.14,18.14,0,0,0-1.37-2,2,2,0,0,0-.78-.57,4.24,4.24,0,0,0-1.32-.15h-.52v5.71Zm-12,0V84h9.52v2.31h-6.92v3h6.43v2.31h-6.43v3.71h7.17v2.31Zm-12,0V84h9.52v2.31H146.9v3h6.43v2.31H146.9v3.71h7.17v2.31Zm-13,0V84h2.52l5.3,9.16V84h2.4V97.64h-2.6l-5.21-9v9Zm-5.08,0V84h2.61V97.64Zm-7.9-5V90.3h5.59v5.46a6.8,6.8,0,0,1-2.37,1.48,8,8,0,0,1-3.13.64,6.63,6.63,0,0,1-3.52-.9,5.68,5.68,0,0,1-2.25-2.58,8.8,8.8,0,0,1-.75-3.65,8.33,8.33,0,0,1,.84-3.8,5.83,5.83,0,0,1,2.46-2.55,6.27,6.27,0,0,1,3.08-.68A5.8,5.8,0,0,1,122,84.79a4.88,4.88,0,0,1,1.74,3l-2.59.51a2.91,2.91,0,0,0-1-1.59,2.94,2.94,0,0,0-1.87-.58,3.42,3.42,0,0,0-2.7,1.14,5.07,5.07,0,0,0-1,3.41,5.59,5.59,0,0,0,1,3.66,3.32,3.32,0,0,0,2.66,1.22,4.38,4.38,0,0,0,1.64-.34,5.76,5.76,0,0,0,1.4-.83V92.62Zm-19,5V84h2.53l5.29,9.16V84h2.41V97.64H107l-5.21-9v9Zm-12,0V84h9.52v2.31H90v3h6.43v2.31H90v3.71h7.16v2.31Z" transform="translate(0.02 -2)"/><path class="cls-8" d="M274.36,93.21l2.53-.27a3.34,3.34,0,0,0,.92,2,2.69,2.69,0,0,0,1.88.64,2.73,2.73,0,0,0,1.88-.57,1.72,1.72,0,0,0,.64-1.32,1.28,1.28,0,0,0-.27-.82,2,2,0,0,0-.93-.59c-.3-.12-1-.31-2.07-.6A6.78,6.78,0,0,1,276,90.3a3.65,3.65,0,0,1-1.18-2.76,3.82,3.82,0,0,1,.55-2A3.6,3.6,0,0,1,277,84.19a6.13,6.13,0,0,1,2.52-.47,5.13,5.13,0,0,1,3.63,1.14,4.12,4.12,0,0,1,1.28,3l-2.6.09a2,2,0,0,0-2.34-2,2.73,2.73,0,0,0-1.76.5,1,1,0,0,0-.41.85,1.08,1.08,0,0,0,.39.83,6.57,6.57,0,0,0,2.38.92,11.56,11.56,0,0,1,2.79,1,3.72,3.72,0,0,1,1.42,1.39,4.31,4.31,0,0,1,.51,2.18,4.2,4.2,0,0,1-.61,2.2,3.74,3.74,0,0,1-1.74,1.52,6.78,6.78,0,0,1-2.8.5,4.72,4.72,0,0,1-5.3-4.67M262.1,97.64V84h2.6v6L270,84h3.49l-4.85,5.32,5.11,8.35h-3.36l-3.54-6.42-2.1,2.28v4.14Zm-10.4-7.89h1.92a9.4,9.4,0,0,0,2.33-.17,1.39,1.39,0,0,0,.73-.58,1.88,1.88,0,0,0,.26-1,1.71,1.71,0,0,0-.35-1.12,1.58,1.58,0,0,0-1-.54c-.21,0-.85,0-1.9,0h-2Zm-2.61,7.89V84h5.47a9,9,0,0,1,3,.36,3.11,3.11,0,0,1,1.5,1.31,4.19,4.19,0,0,1,.56,2.16,3.79,3.79,0,0,1-.85,2.54,4,4,0,0,1-2.54,1.26,6,6,0,0,1,1.39,1.15A16.7,16.7,0,0,1,259.09,95l1.57,2.67h-3.11l-1.86-3a16.78,16.78,0,0,0-1.37-2,2,2,0,0,0-.78-.57,4.24,4.24,0,0,0-1.32-.15h-.52v5.71Zm-11.83-6.85a5.33,5.33,0,0,0,1,3.53,3.34,3.34,0,0,0,5.12,0,5.52,5.52,0,0,0,1-3.58,5.35,5.35,0,0,0-1-3.51,3.18,3.18,0,0,0-2.58-1.15,3.23,3.23,0,0,0-2.59,1.17A5.37,5.37,0,0,0,237.26,90.79Zm-2.68.09a9.26,9.26,0,0,1,.59-3.51,6.41,6.41,0,0,1,1.2-1.88A5,5,0,0,1,238,84.26a6.71,6.71,0,0,1,2.77-.54,5.84,5.84,0,0,1,4.56,1.88,7.46,7.46,0,0,1,1.7,5.22A7.46,7.46,0,0,1,245.37,96a5.8,5.8,0,0,1-4.53,1.87A5.89,5.89,0,0,1,236.27,96,7.34,7.34,0,0,1,234.58,90.88Zm-14.65,6.76L216.9,84h2.68l1.91,9.39L223.84,84h3.1l2.24,9.55,2-9.55h2.62l-3.1,13.67h-2.79l-2.53-10.22-2.55,10.22Zm-14.75-5V90.3h5.59v5.46a6.8,6.8,0,0,1-2.37,1.48,8,8,0,0,1-3.13.64,6.66,6.66,0,0,1-3.52-.9,5.68,5.68,0,0,1-2.25-2.58,8.8,8.8,0,0,1-.75-3.65,8.33,8.33,0,0,1,.84-3.8,5.83,5.83,0,0,1,2.46-2.55,6.27,6.27,0,0,1,3.08-.68,5.85,5.85,0,0,1,3.75,1.07,4.92,4.92,0,0,1,1.73,3l-2.59.51a2.91,2.91,0,0,0-1-1.59,2.94,2.94,0,0,0-1.87-.58,3.42,3.42,0,0,0-2.7,1.14,5.07,5.07,0,0,0-1,3.41,5.59,5.59,0,0,0,1,3.66,3.32,3.32,0,0,0,2.66,1.22,4.38,4.38,0,0,0,1.64-.34,5.76,5.76,0,0,0,1.4-.83V92.62Zm-19,5V84h2.53L194,93.13V84h2.41V97.64h-2.61l-5.21-9v9Zm-5.08,0V84h2.61V97.64Zm-10.27-7.89h1.92a9.4,9.4,0,0,0,2.33-.17,1.39,1.39,0,0,0,.73-.58,1.88,1.88,0,0,0,.26-1,1.71,1.71,0,0,0-.35-1.12,1.58,1.58,0,0,0-1-.54c-.22,0-.85,0-1.9,0h-2Zm-2.61,7.89V84h5.47a9.1,9.1,0,0,1,3,.36,3,3,0,0,1,1.49,1.31,4.1,4.1,0,0,1,.57,2.16,3.79,3.79,0,0,1-.85,2.54,4,4,0,0,1-2.54,1.26,6,6,0,0,1,1.39,1.15A16.7,16.7,0,0,1,178.26,95l1.57,2.67h-3.11l-1.86-3a18.14,18.14,0,0,0-1.37-2,2,2,0,0,0-.78-.57,4.24,4.24,0,0,0-1.32-.15h-.52v5.71Zm-12,0V84h9.52v2.31h-6.92v3h6.43v2.31h-6.43v3.71h7.17v2.31Zm-12,0V84h9.52v2.31H146.9v3h6.43v2.31H146.9v3.71h7.17v2.31Zm-13,0V84h2.52l5.3,9.16V84h2.4V97.64h-2.6l-5.21-9v9Zm-5.08,0V84h2.61V97.64Zm-7.9-5V90.3h5.59v5.46a6.8,6.8,0,0,1-2.37,1.48,8,8,0,0,1-3.13.64,6.63,6.63,0,0,1-3.52-.9,5.68,5.68,0,0,1-2.25-2.58,8.8,8.8,0,0,1-.75-3.65,8.33,8.33,0,0,1,.84-3.8,5.83,5.83,0,0,1,2.46-2.55,6.27,6.27,0,0,1,3.08-.68A5.8,5.8,0,0,1,122,84.79a4.88,4.88,0,0,1,1.74,3l-2.59.51a2.91,2.91,0,0,0-1-1.59,2.94,2.94,0,0,0-1.87-.58,3.42,3.42,0,0,0-2.7,1.14,5.07,5.07,0,0,0-1,3.41,5.59,5.59,0,0,0,1,3.66,3.32,3.32,0,0,0,2.66,1.22,4.38,4.38,0,0,0,1.64-.34,5.76,5.76,0,0,0,1.4-.83V92.62Zm-19,5V84h2.53l5.29,9.16V84h2.41V97.64H107l-5.21-9v9Zm-12,0V84h9.52v2.31H90v3h6.43v2.31H90v3.71h7.16v2.31Z" transform="translate(0.02 -2)"/><polygon class="cls-9" points="131.25 58.15 131.25 72.2 126.15 72.2 126.15 66.36 116.9 66.36 116.9 72.2 111.79 72.2 111.79 58.15 116.9 58.15 116.9 63.88 126.15 63.88 126.15 58.15 131.25 58.15"/><polygon class="cls-10" points="131.25 58.15 131.25 72.2 126.15 72.2 126.15 66.36 116.9 66.36 116.9 72.2 111.79 72.2 111.79 58.15 116.9 58.15 116.9 63.88 126.15 63.88 126.15 58.15 131.25 58.15"/><path class="cls-9" d="M146.71,63.54l-3.42,4.93h6.82ZM133.83,74.2l9.93-14.05h5.88l9.92,14.05h-6L151.26,71h-9.12l-2.32,3.25Z" transform="translate(0.02 -2)"/><path class="cls-10" d="M146.71,63.54l-3.42,4.93h6.82ZM133.83,74.2l9.93-14.05h5.88l9.92,14.05h-6L151.26,71h-9.12l-2.32,3.25Z" transform="translate(0.02 -2)"/><polygon class="cls-9" points="167.01 61.9 167.01 72.2 162.15 72.2 162.15 58.15 168.68 58.15 178.23 68.62 178.23 58.15 183.09 58.15 183.09 72.2 176.8 72.2 167.01 61.9"/><polygon class="cls-10" points="167.01 61.9 167.01 72.2 162.15 72.2 162.15 58.15 168.68 58.15 178.23 68.62 178.23 58.15 183.09 58.15 183.09 72.2 176.8 72.2 167.01 61.9"/><path class="cls-9" d="M187.91,74.2V71.71h11a12.57,12.57,0,0,0,3.52-.31c.85-.29,1.27-.74,1.27-1.33s-.49-1.18-1.48-1.5a9.63,9.63,0,0,0-2.69-.27H195a14.69,14.69,0,0,1-5.88-.86,4.78,4.78,0,0,1-1.76-1.38,2.86,2.86,0,0,1-.63-1.76,3.5,3.5,0,0,1,1.48-2.71,8.15,8.15,0,0,1,4.63-1.37c.72,0,1.78-.07,3.2-.07H208v2.49H197.23a29.51,29.51,0,0,0-3.21.12c-1.07.16-1.61.64-1.61,1.45s.44,1.13,1.35,1.37a13.42,13.42,0,0,0,3,.24h3.85a23.12,23.12,0,0,1,4.43.3,5.54,5.54,0,0,1,3.5,1.76,3.51,3.51,0,0,1,.78,2.18,3.22,3.22,0,0,1-1,2.29,6.63,6.63,0,0,1-4.25,1.71c-.92.09-2.29.14-4.12.14Z" transform="translate(0.02 -2)"/><path class="cls-10" d="M187.91,74.2V71.71h11a12.57,12.57,0,0,0,3.52-.31c.85-.29,1.27-.74,1.27-1.33s-.49-1.18-1.48-1.5a9.63,9.63,0,0,0-2.69-.27H195a14.69,14.69,0,0,1-5.88-.86,4.78,4.78,0,0,1-1.76-1.38,2.86,2.86,0,0,1-.63-1.76,3.5,3.5,0,0,1,1.48-2.71,8.15,8.15,0,0,1,4.63-1.37c.72,0,1.78-.07,3.2-.07H208v2.49H197.23a29.51,29.51,0,0,0-3.21.12c-1.07.16-1.61.64-1.61,1.45s.44,1.13,1.35,1.37a13.36,13.36,0,0,0,3,.24h3.85a23.12,23.12,0,0,1,4.43.3,5.54,5.54,0,0,1,3.5,1.76,3.51,3.51,0,0,1,.78,2.18,3.22,3.22,0,0,1-1,2.29,6.63,6.63,0,0,1-4.25,1.71c-.92.09-2.29.14-4.12.14Z" transform="translate(0.02 -2)"/><path class="cls-9" d="M223.57,62.43q-3.51,0-5,1.34a4.31,4.31,0,0,0-1.18,3.38,4.29,4.29,0,0,0,1.5,3.63,7.83,7.83,0,0,0,4.74,1.14,7.51,7.51,0,0,0,4.64-1.16,4.25,4.25,0,0,0,1.49-3.58,4.45,4.45,0,0,0-1.2-3.36C227.57,62.9,225.92,62.43,223.57,62.43Zm0-2.36a24.81,24.81,0,0,1,6.32.72,7.19,7.19,0,0,1,4.5,2.87,6.69,6.69,0,0,1,1,3.72,5.72,5.72,0,0,1-1.25,3.71,8.26,8.26,0,0,1-4.72,2.64,28.23,28.23,0,0,1-12.54-.33A7.81,7.81,0,0,1,213,71.08a5.79,5.79,0,0,1-1.32-3.83,5.9,5.9,0,0,1,3.4-5.72C217,60.57,219.84,60.08,223.53,60.07Z" transform="translate(0.02 -2)"/><path class="cls-10" d="M223.57,62.43q-3.51,0-5,1.34a4.31,4.31,0,0,0-1.18,3.38,4.29,4.29,0,0,0,1.5,3.63,7.83,7.83,0,0,0,4.74,1.14,7.51,7.51,0,0,0,4.64-1.16,4.25,4.25,0,0,0,1.49-3.58,4.45,4.45,0,0,0-1.2-3.36c-1-.92-2.6-1.39-5-1.39m0-2.36a24.81,24.81,0,0,1,6.32.72,7.19,7.19,0,0,1,4.5,2.87,6.69,6.69,0,0,1,1,3.72,5.72,5.72,0,0,1-1.25,3.71,8.26,8.26,0,0,1-4.72,2.64,28.23,28.23,0,0,1-12.54-.33A7.81,7.81,0,0,1,213,71.08a5.79,5.79,0,0,1-1.32-3.83,5.89,5.89,0,0,1,3.41-5.72C217,60.57,219.84,60.08,223.53,60.07Z" transform="translate(0.02 -2)"/><polygon class="cls-9" points="243.87 61.9 243.87 72.2 239.01 72.2 239.01 58.15 245.54 58.15 255.09 68.62 255.09 58.15 259.94 58.15 259.94 72.2 253.66 72.2 243.87 61.9"/><polygon class="cls-10" points="243.87 61.9 243.87 72.2 239.01 72.2 239.01 58.15 245.54 58.15 255.09 68.62 255.09 58.15 259.94 58.15 259.94 72.2 253.66 72.2 243.87 61.9"/><path class="cls-11" d="M87.23,75.23V71.42H98.17a8.44,8.44,0,0,0,3.52-.47,2.16,2.16,0,0,0,1.27-2,2.38,2.38,0,0,0-1.48-2.28,6.59,6.59,0,0,0-2.69-.41H94.35c-2.72,0-4.67-.43-5.87-1.31a5.94,5.94,0,0,1-2.39-4.79A6.46,6.46,0,0,1,87.57,56a6.38,6.38,0,0,1,4.61-2.1c.72-.07,1.78-.1,3.2-.1H283.79v3.82H96.54a18.71,18.71,0,0,0-3.19.18A2,2,0,0,0,91.73,60a2,2,0,0,0,1.35,2.07,9,9,0,0,0,3,.36H100a15.61,15.61,0,0,1,4.41.46,5.34,5.34,0,0,1,3.5,2.7,7.39,7.39,0,0,1,.77,3.32,6.39,6.39,0,0,1-1,3.5A5.79,5.79,0,0,1,103.4,75a31.76,31.76,0,0,1-4.12.2Z" transform="translate(0.02 -2)"/><path class="cls-6" d="M87.23,75.23V71.42H98.17a8.44,8.44,0,0,0,3.52-.47,2.16,2.16,0,0,0,1.27-2,2.38,2.38,0,0,0-1.48-2.28,6.59,6.59,0,0,0-2.69-.41H94.35c-2.72,0-4.67-.43-5.87-1.31a5.94,5.94,0,0,1-2.39-4.79A6.46,6.46,0,0,1,87.57,56a6.38,6.38,0,0,1,4.61-2.1c.72-.07,1.78-.1,3.2-.1H283.79v3.82H96.54a18.71,18.71,0,0,0-3.19.18A2,2,0,0,0,91.73,60a2,2,0,0,0,1.35,2.07,9,9,0,0,0,3,.36H100a15.61,15.61,0,0,1,4.41.46,5.34,5.34,0,0,1,3.5,2.7,7.39,7.39,0,0,1,.77,3.32,6.39,6.39,0,0,1-1,3.5A5.79,5.79,0,0,1,103.4,75a31.76,31.76,0,0,1-4.12.2Z" transform="translate(0.02 -2)"/><path class="cls-11" d="M283.79,59.08V62.9H272.85a8.51,8.51,0,0,0-3.52.47,2.16,2.16,0,0,0-1.26,2,2.41,2.41,0,0,0,1.47,2.28,6.62,6.62,0,0,0,2.69.4h4.45q4.06,0,5.87,1.32a5.8,5.8,0,0,1,1.75,2.09,6,6,0,0,1,.63,2.7,6.5,6.5,0,0,1-1.47,4.12,6.38,6.38,0,0,1-4.62,2.1c-.71.06-1.78.09-3.2.09H87.12V76.68H274.48a17.43,17.43,0,0,0,3.2-.19,2,2,0,0,0,1.62-2.18,2,2,0,0,0-1.36-2.07,9,9,0,0,0-3-.36h-3.84a16.1,16.1,0,0,1-4.42-.45,5.35,5.35,0,0,1-3.49-2.7,7.27,7.27,0,0,1-.78-3.32,6.36,6.36,0,0,1,1-3.5,5.78,5.78,0,0,1,4.24-2.62,29.53,29.53,0,0,1,4.11-.21Z" transform="translate(0.02 -2)"/><path class="cls-6" d="M283.79,59.08V62.9H272.85a8.51,8.51,0,0,0-3.52.47,2.15,2.15,0,0,0-1.26,2,2.41,2.41,0,0,0,1.47,2.28,6.62,6.62,0,0,0,2.69.4h4.44q4.08,0,5.88,1.32a5.8,5.8,0,0,1,1.75,2.09,6,6,0,0,1,.63,2.7,6.5,6.5,0,0,1-1.47,4.12,6.38,6.38,0,0,1-4.62,2.1c-.71.06-1.78.09-3.2.09H87.12V76.68H274.48a17.43,17.43,0,0,0,3.2-.19,2,2,0,0,0,1.62-2.18,2,2,0,0,0-1.36-2.07,9,9,0,0,0-3-.36h-3.85a16.07,16.07,0,0,1-4.41-.45,5.35,5.35,0,0,1-3.49-2.7,7.27,7.27,0,0,1-.78-3.32,6.36,6.36,0,0,1,1-3.5,5.76,5.76,0,0,1,4.24-2.62,29.53,29.53,0,0,1,4.11-.21Z" transform="translate(0.02 -2)"/></svg>